<svg xmlns="http://www.w3.org/2000/svg" viewBox="0 0 60 44">
    <title>protein</title>
    <g id="our_services" data-name="our services">
        <polygon points="38.62 9.78 19.54 1 14.68 11.56 37.8 11.56 38.62 9.78" style="fill:#278ab0"/>
        <path d="M18.76,33.39a4.81,4.81,0,1,0,4.81,4.8A4.81,4.81,0,0,0,18.76,33.39Zm0,6.24a1.44,1.44,0,1,1,1.44-1.44A1.44,1.44,0,0,1,18.76,39.63Z" style="fill:#278ab0"/>
        <path d="M33.28,33.39a4.81,4.81,0,1,0,4.81,4.8A4.81,4.81,0,0,0,33.28,33.39Zm0,6.24a1.44,1.44,0,1,1,1.44-1.44A1.44,1.44,0,0,1,33.28,39.63Z" style="fill:#278ab0"/>
        <path d="M51.85,8.79a1,1,0,0,0-.58-.15H42.43L41.61,12l-.17.74H7.94l4.54,18.74H40.19l4.65-19.32h6c.41,0,.75-.18.79-.43l.41-2.59A.38.38,0,0,0,51.85,8.79ZM39.1,16.05l-.5.5.34.33-.34-.33-.46.47.46-.47-.5-.5Zm-8.21,0-.13.13,1.49,1.49,1.13-1.12-.5-.5h1l-.49.5.33.33-.34-.33-1.12,1.12,1,1-1-1-1.49,1.49.62.63-.62-.63-1.12,1.12.67.68-.67-.67-1.49,1.48.71.72-.71-.71h0l-1.5-1.48L25.54,21.4,27,22.9h0l.6.6L27,22.9l-1.48,1.49.86.87-.87-.87h0L24,22.9l-.51.51L24,22.9h0l1.5-1.5h0l1.12-1.12h0l1.5-1.5h0l1.11-1.12h0l1.5-1.49h0l.13-.12Zm-8,11h0l-1,1,1-1-1.48-1.49-.57.56.56-.56h0L22.91,24,21.8,22.9l-1.5,1.49h0l-.78.79.78-.79L18.81,22.9l-.82.81.82-.81h0l1.49-1.5-.56-.56.56.56h0l1.5,1.5h0L22.91,24h0l1.5,1.49h0l.51.51-.51-.51ZM16.2,20.28h0l-.81-.81.82.81,1.49-1.49L17,18.11l.67.68h0l1.49,1.49,1.12-1.12-1.49-1.5h0L18.14,17l.67.67,1.5-1.48h0l.09-.1-.09.11,1.49,1.48.67-.67-.67.68h0l-1.5,1.5h0l-1.11,1.12h0l-1.49,1.49h0l-.45.45.45-.46Zm8.21,0h0l.79.79-.79-.78-1.5,1.48h0l-.79.78.78-.79-1.48-1.49h0l-.78-.78.79.78,1.49-1.49h0l.61-.61-.61.61Zm4.24-4.24-.5.5.51.51-.51-.51h0l-.5-.5Zm-5.23,0-.5.5L24,17.66l1.5-1.48h0l.06-.06-.05.07L27,17.66l1-1-1,1h0l-1.48,1.5.55.56-.56-.56h0L24,17.66h0l-1.12-1.12h0l-.5-.5Zm-11,0H13l-.43.43Zm.69,3.4.83.83,1.11-1.12-1.49-1.5-.68.69-.34-1.7h0l.34,1.69.67-.67L13,17.06l.61.6,1.49-1.48-.08-.1.09.09h0l1.5,1.48,1.12-1.11-.5-.5h1l-.5.5h0l-1.12,1.12h0l-1.5,1.5h0L14,20.28h0l-.55.55Zm3.64,8.87-.2-.19-.2.19H14.92L14.66,27l.41-.41L15,26.5l.12.13h0l1.5,1.5h0l.2.19Zm5.22,0-.19-.19-.2.19H19l-.2-.19-.1.1.1-.11L17.69,27l-.71.72.71-.72L16.2,25.51l-.9.9.89-.9h0L17.69,24,16.57,22.9l-1.5,1.49h0l-.78.78h0l.78-.78L13.88,23.2l-.1-.51,1.29-1.29-.56-.56.56.56h0l1.5,1.5h0L17.69,24h0l1.49,1.49h0l1.12,1.12h0l1.5,1.5h0l.2.2Zm5.23,0-.2-.19-.19.19H24.24l-.2-.19-.2.19h0l.2-.2h0l1.5-1.5h0l1.12-1.12h0L28.15,24h0l1.11-1.11h0l1.5-1.5h0l1.12-1.12h0l1.5-1.5h0l1.12-1.12h0L36,16.18l.13-.13h0l-.13.13,1.49,1.49h0L36,19.16l.45.45L36,19.16l-.45.45.45-.45-1.5-1.49-1.11,1.12,1.49,1.49h0l-1.49,1.48.62.63-.63-.62L32.25,22.9l.61.61-.61-.61-1.49,1.49.87.87-.87-.87-1.12,1.12.56.56-.56-.56L28.15,27l1,1-1-1L27,28.13l.2.19ZM37.48,22.9,36,24.39h0l-1.5-1.49h0L36,21.4h0l1.49,1.5Zm-5,5.42-.2-.19-.2.19H29.46l-.2-.19-.19.19.19-.19h0l1.5-1.5h0l1.12-1.12h0L33.37,24h0l1.48,1.49.45-.44-.44.44.67.67-.68-.67L33.38,27h0l-1.49-1.5-1.12,1.12,1.49,1.5.38-.38-.38.38.2.19Zm5.17,0H34.69l-.2-.19h0l1.5-1.5h0l1.65,1.65Zm.44-1.85-1-1h0L38.6,24h0l0,0Zm.75-3.13.26-1.09L38.82,22l.26.25ZM39.37,21l-.77.77h0l-1.49-1.49h0l1.49-1.49h0l1,1.05Zm.71-3-.36-.36h0l.59-.59Z" style="fill:#278ab0"/>
        <polygon points="19.18 25.51 17.69 27 18.81 28.13 20.3 26.63 19.18 25.51" style="fill:#278ab0"/>
        <polygon points="28.15 18.79 29.64 20.29 29.64 20.28 30.76 19.16 29.27 17.67 28.15 18.79" style="fill:#278ab0"/>
        <polygon points="33.38 21.77 31.88 20.29 30.76 21.4 32.25 22.9 33.38 21.77" style="fill:#278ab0"/>
        <polygon points="30.76 24.39 29.27 22.9 28.15 24.02 29.64 25.51 30.76 24.39" style="fill:#278ab0"/>
        <polygon points="26.65 25.51 25.54 26.63 27.02 28.13 28.15 27 26.65 25.51" style="fill:#278ab0"/>
    </g>
</svg>