<?xml version="1.0" encoding="utf-8"?>
<!-- Generator: Adobe Illustrator 23.0.3, SVG Export Plug-In . SVG Version: 6.00 Build 0)  -->
<svg version="1.1" id="Layer_1" xmlns="http://www.w3.org/2000/svg" xmlns:xlink="http://www.w3.org/1999/xlink" x="0px" y="0px"
	 viewBox="0 0 414 364.8" style="enable-background:new 0 0 414 364.8;" xml:space="preserve">
<style type="text/css">
	.st0{fill:#278AB0;}
	.st1{opacity:0.2;fill:#278AB0;enable-background:new    ;}
</style>
<path class="st0" d="M159.5,212.5h-96l-1-29.5c-0.2-4.9,3.7-9,8.5-9.2c0.5,0,0.9,0,1.4,0.1l55.9,6.8h0c17.2,0,31.2,14,31.2,31.3
	V212.5z"/>
<path class="st0" d="M116.7,107.8H49.8c-3.7,0-6.8,3-6.8,6.8c0,0,0,0,0,0v66.9c0,3.7,3,6.8,6.8,6.8c0,0,0,0,0,0h66.9
	c3.7,0,6.8-3,6.8-6.8c0,0,0,0,0,0v-66.9C123.5,110.9,120.5,107.8,116.7,107.8C116.7,107.8,116.7,107.8,116.7,107.8z"/>
<path class="st0" d="M101.7,157.9L70,164c-3.9,0.8-7.7-1.8-8.4-5.7l-2.4-12.5c-0.8-3.9,1.8-7.7,5.7-8.4l31.6-6.2
	c3.9-0.8,7.7,1.8,8.4,5.7l2.4,12.5C108.1,153.3,105.6,157.1,101.7,157.9z"/>
<path class="st0" d="M95.3,143.1l-24.1,4.7c-0.9,0.2-1.8-0.4-2-1.3c-0.2-0.9,0.4-1.8,1.3-2l0,0l24.1-4.7c0.9-0.2,1.8,0.4,2,1.3
	C96.8,142.1,96.2,143,95.3,143.1z"/>
<path class="st0" d="M90.6,150.1l-12.5,2.4c-0.9,0.2-1.8-0.4-2-1.3c-0.2-0.9,0.4-1.8,1.3-2l12.5-2.4c0.9-0.2,1.8,0.4,2,1.3
	C92.2,149,91.6,149.9,90.6,150.1z"/>
<path class="st0" d="M123.5,114.6v8.9H43v-8.9c0-3.7,3-6.8,6.8-6.8c0,0,0,0,0,0h66.9C120.5,107.8,123.5,110.9,123.5,114.6
	C123.5,114.6,123.5,114.6,123.5,114.6z"/>
<path class="st0" d="M284.3,126.3c-1.8-5.7-7.8-8.8-13.4-7.1c-0.6,0.2-1.2,0.4-1.8,0.7l-92.1-33l-4.1,23l91.8,25.2
	c3.1,5.1,9.7,6.7,14.8,3.7C283.8,136.2,285.8,131,284.3,126.3z"/>
<path class="st1" d="M284.3,126.3c-1.8-5.7-7.8-8.8-13.4-7.1c-0.6,0.2-1.2,0.4-1.8,0.7l-92.1-33l-4.1,23l91.8,25.2
	c3.1,5.1,9.7,6.7,14.8,3.7C283.8,136.2,285.8,131,284.3,126.3z"/>
<path class="st0" d="M193.3,91.1l-8.7,22.7c-1,2.5-3.7,3.7-6.2,2.8c-0.2-0.1-0.4-0.2-0.6-0.3l-21.1-11.9
	c-6.9-2.7-10.3-10.4-7.6-17.3c2.7-6.9,10.4-10.3,17.2-7.6l23.6,5.2c2.6,0.6,4.2,3.1,3.7,5.7C193.5,90.6,193.4,90.9,193.3,91.1z"/>
<path class="st0" d="M291.5,147.3l-33,15l4.3,16.3c8.4,31.5,10.6,64.3,6.5,96.6l0,0l24.1,5l20-51l-7-58L291.5,147.3z"/>
<path class="st0" d="M356.3,222.8c-21.7,0-39.4,15.8-40.2,35.5h80.4C395.6,238.6,377.9,222.8,356.3,222.8z"/>
<path class="st0" d="M339.4,226.2c-1.1-89.1-51.9-80.9-51.9-80.9s0.9,27.7,1.4,28.6c32.3,61.2-21,132.9-89,119.7
	c-1.3-0.2-2.5-0.5-3.7-0.8c-17.9-3.7-29.8-20.7-27.2-38.8c6.7-53.7-26.6-52.8-26.6-52.8H93.8l-25.3-22.7c-3-2.7-7.7-2.5-10.4,0.5
	c-0.6,0.7-1.1,1.5-1.4,2.4l-3.3,8.8c0,0-48,5-44,52h14.8c0,1.3,0,2.7,0.2,4l110.8-0.9c6.5-0.1,12.2,5.2,12.2,11.7
	c0,6.5-5.2,11.8-11.7,11.8c-0.1,0-0.3,0-0.4,0l-17.9-0.6c-5.5,24.5,8,41,22.9,51.4c14,9.6,30.6,14.7,47.6,14.6h48.5
	c63,0,74-53,74-53C343.5,267.3,339.4,226.2,339.4,226.2z"/>
<circle class="st0" cx="353.3" cy="307.1" r="56.3"/>
<circle class="st0" cx="353.3" cy="307.1" r="13.8"/>
<circle class="st0" cx="69.3" cy="298.6" r="64.8"/>
<circle class="st0" cx="69.3" cy="298.6" r="15.9"/>
<path class="st0" d="M258.6,166.8l-11.9-32.2c-2.6-7.1,1-14.9,8.1-17.5c0,0,0,0,0,0l34-12.5c12.4-4.6,26.2,1.8,30.8,14.2
	c0,0,0,0,0,0c1,2.7,1.5,5.5,1.5,8.3c0,7.3-3.3,14.2-9,18.7c-2,1.6-4.3,2.9-6.7,3.8L258.6,166.8z"/>
<path class="st0" d="M320.6,127c0,7.1-3.2,13.9-8.8,18.3c-16-4.2-25.6-20.6-21.3-36.6c0.4-1.6,1-3.2,1.6-4.7
	c12.7-2.8,25.2,5.3,28,18C320.5,123.6,320.6,125.3,320.6,127z"/>
<ellipse class="st0" cx="18" cy="231.8" rx="14" ry="17"/>
<polygon class="st0" points="203.1,292 215.3,292 221.2,260.2 203.1,260.2 "/>
<path class="st0" d="M199.9,288l24.1,0h0c8.5,0,15.4,6.9,15.4,15.4c0,0,0,0,0,0v0.5l-39.5,0L199.9,288z"/>
<path class="st0" d="M217.3,279c-0.1,0-0.3,0-0.4,0l-17-1.2c-2.5-0.2-4.3-2.4-4.1-4.9c0-0.4,0.1-0.8,0.3-1.1l22.7-51
	c0.3-0.9,0.3-1.9-0.2-2.8c-0.5-0.9-1.3-1.5-2.2-1.8c-10.7-2.8-38.1-10.2-61.8-18.9c-10.2-3.7-16.6-9.1-19-16
	c-3.2-9.1,1.6-17.4,1.8-17.7l0.2-0.3l22.3,2l24.2,2.1l53,28.4c9.2,5,13.1,16.2,8.8,25.8l-24.4,54.8C220.7,277.9,219.1,279,217.3,279
	z"/>
<circle class="st0" cx="163.7" cy="39.7" r="24.6"/>
<polygon class="st0" points="196.1,295 208.3,295 214.2,263.2 196.1,263.2 "/>
<path class="st0" d="M192.9,291l24.1,0h0c8.5,0,15.4,6.9,15.4,15.4c0,0,0,0,0,0v0.5l-39.5,0L192.9,291z"/>
<path class="st0" d="M210.3,282c-0.1,0-0.3,0-0.4,0l-17-1.2c-2.5-0.2-4.3-2.4-4.1-4.9c0-0.4,0.1-0.8,0.3-1.1l22.7-51
	c0.3-0.9,0.3-1.9-0.2-2.8c-0.5-0.9-1.3-1.5-2.2-1.8c-10.7-2.8-38.1-10.2-61.8-18.9c-10.2-3.7-16.6-9.1-19-16
	c-3.2-9.1,1.6-17.4,1.8-17.7l0.2-0.3l22.3,2l24.2,2.1l53,28.4c9.2,5,13.1,16.2,8.8,25.8l-24.4,54.8C213.7,280.9,212.1,282,210.3,282
	z"/>
<path class="st0" d="M171.3,78.2l-26-9c0,0-16.3,12.5-8.5,43.6c4.1,16.1,2.9,33-3.4,48.3c-0.8,1.9-1.6,3.7-2.6,5.5c0,0,29,35,56,9
	l-10.5-50.5C176.3,125.2,192.8,91.7,171.3,78.2z"/>
<path class="st0" d="M166.8,65.1c-3.5-5.2-6.3-12.5-2.4-17.5c3.8-4.9,11.3-4.2,17.1-6.4c8.1-3,12.8-12.5,11.3-21.1
	s-8.3-15.6-16.5-18.5S159-0.2,151,3.1c-9.8,4.1-18.3,12-21.8,22.1s-1.6,22.1,5.7,29.8c7.9,8.3,20.2,10.5,31.6,10.4"/>
<path class="st0" d="M188.4,101.6l-5.8,23.6c-0.6,2.6-3.2,4.2-5.8,3.5c-0.2-0.1-0.5-0.1-0.7-0.2l-22.4-9.2
	c-7.2-1.8-11.5-9.1-9.7-16.2c1.8-7.1,9-11.5,16.2-9.7l24.1,2.3c2.6,0.3,4.6,2.6,4.3,5.3C188.5,101.1,188.5,101.3,188.4,101.6
	L188.4,101.6z"/>
</svg>
