<svg xmlns="http://www.w3.org/2000/svg" viewBox="0 0 60 44">
    <title>protein</title>
    <g id="our_services" data-name="our services">
        <path d="M34.89,25.39,37,24l-1.2-3.68-2.5.06-2-2.69.84-2.36L29,13l-2,1.52-3.17-1-.71-2.41H19.25l-.7,2.41-3.18,1-2-1.52L10.25,15.3l.85,2.36-2,2.69-2.5-.06L5.43,24l2.06,1.42v3.33L5.43,30.14l1.2,3.69,2.5-.07,2,2.7-.85,2.36,3.14,2.28,2-1.53,3.18,1,.7,2.4h3.88l.71-2.4,3.17-1,2,1.53,3.14-2.28-.84-2.36,2-2.7,2.5.07L37,30.14l-2.07-1.42Zm-6.77,3.82-.05.19a7.37,7.37,0,0,1-2.53,3.47l-.17.12a7.26,7.26,0,0,1-4.07,1.32h-.2A7.29,7.29,0,0,1,17,33l-.16-.12a7.24,7.24,0,0,1-2.53-3.47l-.06-.19a7.33,7.33,0,0,1,0-4.3l.06-.19a7.27,7.27,0,0,1,2.53-3.48l.16-.11a7.22,7.22,0,0,1,4.09-1.32h.2a7.18,7.18,0,0,1,4.07,1.32l.17.11a7.4,7.4,0,0,1,2.53,3.48l.05.19A7.17,7.17,0,0,1,28.12,29.21Z" style="fill:#278ab0"/>
        <path d="M52.28,13.18,54.57,12,54.1,9.3l-2.57-.36L50.41,7l1-2.4L49.31,2.85l-2.2,1.38L45,3.47,44.2,1H41.5l-.8,2.47-2.1.76L36.4,2.85,34.32,4.6l1,2.4L34.18,8.94l-2.57.36L31.14,12l2.29,1.21.39,2.21-1.74,1.92,1.35,2.35L36,19.12l1.72,1.44-.1,2.59,2.55.93,1.59-2H44l1.6,2,2.55-.93L48,20.56l1.72-1.44,2.54.54,1.35-2.35-1.74-1.92Zm-4.54,1-.05.13a5,5,0,0,1-1.78,2.44l-.11.09a5.13,5.13,0,0,1-2.88.94h-.13a5.1,5.1,0,0,1-2.88-.94l-.12-.09A5.07,5.07,0,0,1,38,14.3l0-.13a5.05,5.05,0,0,1,0-3L38,11a5.21,5.21,0,0,1,1.77-2.44l.12-.09a5.09,5.09,0,0,1,2.88-.93h.13a5.12,5.12,0,0,1,2.88.93l.11.09A5.1,5.1,0,0,1,47.69,11l.05.13A5.21,5.21,0,0,1,47.74,14.17Z" style="fill:#278ab0"/>
    </g>
</svg>