<svg xmlns="http://www.w3.org/2000/svg" viewBox="0 0 60 44">
    <title>protein</title>
    <g id="our_services" data-name="our services">
        <path d="M58.07,11.09l-9,5.14-.17.11-9.14,5.24V15.64A24.86,24.86,0,0,0,26,22c-.56.52-1.11,1.06-1.63,1.63-.18.22-.36.45-.55.67a33.27,33.27,0,0,1-3.55,3.48A32.93,32.93,0,0,1,4.85,35.12c-.59.12-2.33.13-2.92.2v-8c.37,0,.75-.1,1.12-.16A24.77,24.77,0,0,0,14.56,22a25.82,25.82,0,0,0,3.16-3l.59-.72c.64-.7,1.3-1.38,2-2A32.87,32.87,0,0,1,39.82,7.45V.5L49,5.79,57,10.47Z" style="fill:#278ab0"/>
        <path d="M49.1,27.77l-.18-.11L40,22.57l-.26.15v5.64A24.72,24.72,0,0,1,27.28,23c-.74.74-2,2-2.44,2.6a36.24,36.24,0,0,1-3.29,3.24,32.88,32.88,0,0,0,18.27,7.69V43.5L49,38.21,57,33.52l1-.61Z" style="fill:#278ab0"/>
        <path d="M13.11,20.94A24.68,24.68,0,0,0,3.05,16.83c-.37-.07-.75-.12-1.12-.16L2,8.61c.59.07,2.3.16,2.88.26a33.48,33.48,0,0,1,3.92,1,33,33,0,0,1,10.11,5.25,31.17,31.17,0,0,0-2.26,2.41A40.61,40.61,0,0,1,13.11,20.94Z" style="fill:#278ab0"/>
    </g>
</svg>
