<svg id="Layer_1" data-name="Layer 1" xmlns="http://www.w3.org/2000/svg" viewBox="0 0 50 50"><defs><style>.cls-1{fill:#e62b33;}.cls-2{fill:#fff;}</style></defs><title>sqs</title><path class="cls-1" d="M50,25A25,25,0,1,1,25,0,25,25,0,0,1,50,25Z"/><path class="cls-2" d="M35.63,24.53h-.54v-.48c0-.69,0-1.38,0-2.06,0-.12-.12-.32-.19-.32-.62,0-1.25,0-1.92,0v2.87H30.1c0,.22,0,.36,0,.51,0,.52,0,1,.07,1.56l1.52.05H33v2.83h2.07V26.63h2.84v-2.1Z"/><path class="cls-2" d="M27.48,24.29c-1.79,0-3.59,0-5.38,0-.51,0-1,0-1.53,0-.1,0-.28.12-.28.19,0,1,0,2.06,0,3.15h4.39c-.06.22-.09.37-.14.52a4.24,4.24,0,0,1-5,2.62,4.84,4.84,0,0,1-4-5.74A4.63,4.63,0,0,1,16,23.94a4.83,4.83,0,0,1,5.38-2.72,4.63,4.63,0,0,1,2.06,1.07l2.4-2.42-.2-.16a7.91,7.91,0,0,0-6.66-1.83,8.23,8.23,0,0,0,2.34,16.28,7.39,7.39,0,0,0,4.77-2.23,8.44,8.44,0,0,0,2.07-7.12C28.07,24.37,27.89,24.28,27.48,24.29Z"/></svg>